# xmcd
#
# Track frame offsets:
#	150
#	17947
#	31491
#	48673
#	65196
#	77980
#	92065
#	104363
#	121923
#	136854
#	149768
#	159663
#	178164
#	191085
#	210630
#	229366
#
# Disc length: 3285 seconds
#
# Revision: 0
# Processed by: cddbd v1.5.2PL0 Copyright (c) Steve Scherf et al.
# Submitted via: dBpowerAMP V4.0
#
DISCID=f60cd310
DTITLE=Grupo Divino Pai Eterno - MISSA SERTANEJA
DYEAR=2006
DGENRE=Country
TTITLE0=Hino ao Divino Pai Eterno
TTITLE1=Canto de Entrada: Jesus amigo
TTITLE2=Em nome do Pai
TTITLE3=Ato Penitencial
TTITLE4=Glória
TTITLE5=Salmo: As alegrias
TTITLE6=Aclamação
TTITLE7=Profissão de fé
TTITLE8=Oferta sertaneja
TTITLE9=Santo
TTITLE10=Pai nosso dos trabalhadores
TTITLE11=Abraço da paz
TTITLE12=Cordeiro
TTITLE13=Comunhão
TTITLE14=Santa Maria do Brasil
TTITLE15=Consagração ao Divino Pai Eterno
EXTD=
EXTT0=
EXTT1=
EXTT2=
EXTT3=
EXTT4=
EXTT5=
EXTT6=
EXTT7=
EXTT8=
EXTT9=
EXTT10=
EXTT11=
EXTT12=
EXTT13=
EXTT14=
EXTT15=
PLAYORDER=
